<svg width="29.412" height="23.292" viewBox="0 0 29.412 23.292" xmlns="http://www.w3.org/2000/svg"><g id="svgGroup" stroke-linecap="round" fill-rule="evenodd" font-size="9pt" stroke="#7ABE7A" stroke-width="0.5mm" fill="#7ABE7A" style="stroke:#7ABE7A;stroke-width:0.5mm;fill:#7ABE7A"><path d="M 19.836 5.04 L 22.716 5.04 L 22.716 0 L 24.048 0 L 24.048 5.04 L 29.412 5.04 L 29.412 6.264 L 24.048 6.264 L 24.048 17.928 Q 24.048 19.339 24.691 20.257 A 3.093 3.093 0 0 0 24.822 20.43 Q 25.596 21.384 26.82 21.744 Q 28.044 22.104 29.412 21.816 L 29.412 22.932 A 6.1 6.1 0 0 1 27.846 23.14 A 5.843 5.843 0 0 1 26.982 23.076 A 5.2 5.2 0 0 1 25.126 22.439 A 4.987 4.987 0 0 1 24.822 22.248 A 4.722 4.722 0 0 1 23.347 20.62 A 5.517 5.517 0 0 1 23.292 20.52 Q 22.718 19.444 22.716 17.938 A 7.844 7.844 0 0 1 22.716 17.928 L 22.716 6.264 L 19.836 6.264 L 19.836 5.04 Z M 8.712 23.292 Q 6.192 23.292 4.23 22.176 Q 2.268 21.06 1.134 18.99 A 8.977 8.977 0 0 1 0.195 16.286 A 12.373 12.373 0 0 1 0 14.04 A 12.026 12.026 0 0 1 0.233 11.618 A 9.035 9.035 0 0 1 1.134 9.108 Q 2.268 7.02 4.248 5.904 A 8.72 8.72 0 0 1 7.948 4.815 A 10.563 10.563 0 0 1 8.712 4.788 A 9.69 9.69 0 0 1 11.227 5.103 A 8.11 8.11 0 0 1 13.176 5.904 A 7.971 7.971 0 0 1 16.178 8.97 A 9.512 9.512 0 0 1 16.254 9.108 A 9.18 9.18 0 0 1 17.222 11.973 A 12.33 12.33 0 0 1 17.388 14.04 A 12.263 12.263 0 0 1 17.171 16.405 A 8.924 8.924 0 0 1 16.254 18.99 Q 15.12 21.06 13.158 22.176 Q 11.196 23.292 8.712 23.292 Z M 8.676 22.068 Q 10.584 22.068 12.258 21.204 A 6.522 6.522 0 0 0 14.635 19.092 A 8.04 8.04 0 0 0 14.976 18.558 Q 16.02 16.776 16.02 14.04 Q 16.02 11.268 14.976 9.504 Q 13.932 7.74 12.258 6.876 Q 10.584 6.012 8.712 6.012 Q 6.804 6.012 5.148 6.876 A 6.509 6.509 0 0 0 2.861 8.886 A 8.075 8.075 0 0 0 2.448 9.522 Q 1.404 11.304 1.404 14.04 A 12.328 12.328 0 0 0 1.537 15.902 Q 1.692 16.915 2.028 17.749 A 6.386 6.386 0 0 0 2.43 18.576 A 7.002 7.002 0 0 0 3.877 20.353 A 6.292 6.292 0 0 0 5.13 21.204 Q 6.804 22.068 8.676 22.068 Z" vector-effect="non-scaling-stroke"/></g></svg>