<svg width="149.04" height="32.904" viewBox="0 0 149.04 32.904" xmlns="http://www.w3.org/2000/svg"><g id="svgGroup" stroke-linecap="round" fill-rule="evenodd" font-size="9pt" stroke="#7ABE7A" stroke-width="0.25mm" fill="#7ABE7A" style="stroke:#7ABE7A;stroke-width:0.25mm;fill:#7ABE7A"><path d="M 122.112 25.704 L 122.112 7.704 L 123.408 7.704 L 123.444 11.772 A 6.682 6.682 0 0 1 124.576 9.623 A 6.231 6.231 0 0 1 125.514 8.676 A 4.964 4.964 0 0 1 127.332 7.758 Q 128.051 7.555 128.907 7.505 A 9.919 9.919 0 0 1 129.492 7.488 A 6.867 6.867 0 0 1 131.909 7.904 A 6.308 6.308 0 0 1 133.362 8.676 A 5.618 5.618 0 0 1 135.06 10.638 A 8.172 8.172 0 0 1 135.72 12.312 Q 136.332 10.025 137.808 8.877 A 4.906 4.906 0 0 1 138.168 8.622 A 7.148 7.148 0 0 1 141.345 7.535 A 8.99 8.99 0 0 1 142.272 7.488 A 7.237 7.237 0 0 1 144.508 7.825 A 6.497 6.497 0 0 1 145.71 8.352 Q 147.24 9.216 148.14 10.98 Q 148.866 12.403 149.007 14.482 A 15.361 15.361 0 0 1 149.04 15.516 L 149.04 25.704 L 147.708 25.704 L 147.708 15.588 A 12.199 12.199 0 0 0 147.564 13.648 Q 147.247 11.683 146.232 10.458 A 4.819 4.819 0 0 0 142.998 8.729 A 6.951 6.951 0 0 0 142.128 8.676 A 5.947 5.947 0 0 0 140.004 9.042 A 5.274 5.274 0 0 0 137.79 10.656 A 6.287 6.287 0 0 0 136.7 12.673 Q 136.392 13.583 136.257 14.699 A 15.556 15.556 0 0 0 136.152 16.56 L 136.152 25.704 L 134.82 25.704 L 134.82 15.588 Q 134.82 13.355 134.188 11.819 A 5.559 5.559 0 0 0 133.398 10.458 A 4.624 4.624 0 0 0 130.329 8.744 A 6.81 6.81 0 0 0 129.348 8.676 A 6.089 6.089 0 0 0 127.386 8.978 A 5.049 5.049 0 0 0 125.028 10.656 A 6.299 6.299 0 0 0 124.003 12.586 Q 123.697 13.485 123.559 14.589 A 15.885 15.885 0 0 0 123.444 16.56 L 123.444 25.704 L 122.112 25.704 Z M 63.936 25.704 L 63.936 7.704 L 65.232 7.704 L 65.268 11.772 A 6.539 6.539 0 0 1 66.399 9.66 A 6.068 6.068 0 0 1 67.482 8.622 A 5.567 5.567 0 0 1 69.425 7.709 Q 70.215 7.502 71.144 7.462 A 10.592 10.592 0 0 1 71.604 7.452 Q 73.584 7.452 75.15 8.316 A 5.876 5.876 0 0 1 77.226 10.263 A 7.469 7.469 0 0 1 77.634 10.962 A 7.616 7.616 0 0 1 78.278 12.773 Q 78.552 13.984 78.552 15.48 L 78.552 25.704 L 77.22 25.704 L 77.22 15.552 A 11.778 11.778 0 0 0 77.071 13.612 Q 76.896 12.568 76.517 11.733 A 5.46 5.46 0 0 0 75.69 10.422 A 5.002 5.002 0 0 0 72.568 8.726 A 7.308 7.308 0 0 0 71.424 8.64 A 6.545 6.545 0 0 0 69.348 8.955 A 5.363 5.363 0 0 0 66.942 10.584 A 6.15 6.15 0 0 0 65.798 12.65 Q 65.492 13.554 65.362 14.659 A 14.848 14.848 0 0 0 65.268 16.38 L 65.268 25.704 L 63.936 25.704 Z M 23.436 20.88 L 23.544 20.808 L 23.544 32.904 L 22.212 32.904 L 22.212 7.704 L 23.508 7.704 L 23.544 12.348 A 7.251 7.251 0 0 1 25.603 9.267 A 8.924 8.924 0 0 1 26.046 8.892 A 6.423 6.423 0 0 1 28.592 7.69 Q 29.533 7.467 30.633 7.453 A 11.641 11.641 0 0 1 30.78 7.452 A 9.238 9.238 0 0 1 33.184 7.753 A 7.68 7.68 0 0 1 35.154 8.586 A 7.665 7.665 0 0 1 38.08 11.774 A 9.146 9.146 0 0 1 38.088 11.79 A 9.444 9.444 0 0 1 38.932 14.364 A 13.047 13.047 0 0 1 39.132 16.704 A 12.735 12.735 0 0 1 38.918 19.097 A 9.415 9.415 0 0 1 38.088 21.582 A 8.117 8.117 0 0 1 36.27 23.994 A 7.655 7.655 0 0 1 35.19 24.804 A 7.593 7.593 0 0 1 32.254 25.854 A 9.861 9.861 0 0 1 30.816 25.956 A 9.597 9.597 0 0 1 28.695 25.734 A 6.785 6.785 0 0 1 26.01 24.498 A 7.486 7.486 0 0 1 24.019 22.229 A 7.176 7.176 0 0 1 23.436 20.88 Z M 59.112 16.956 L 44.064 16.956 Q 44.136 19.26 45.036 21.006 A 7.204 7.204 0 0 0 46.538 23.011 A 6.69 6.69 0 0 0 47.484 23.742 A 6.32 6.32 0 0 0 50.645 24.723 A 7.687 7.687 0 0 0 51.012 24.732 A 9.202 9.202 0 0 0 53.061 24.514 A 7.038 7.038 0 0 0 55.17 23.67 Q 56.916 22.608 57.708 20.664 L 58.824 21.132 Q 57.888 23.436 55.854 24.696 A 8.324 8.324 0 0 1 52.709 25.833 A 10.838 10.838 0 0 1 51.048 25.956 A 8.649 8.649 0 0 1 48.615 25.626 A 7.314 7.314 0 0 1 46.692 24.75 A 8.192 8.192 0 0 1 43.894 21.682 A 9.762 9.762 0 0 1 43.758 21.42 A 9.968 9.968 0 0 1 42.822 18.353 A 12.898 12.898 0 0 1 42.696 16.524 Q 42.696 13.86 43.758 11.808 Q 44.82 9.756 46.71 8.604 A 7.934 7.934 0 0 1 50.381 7.472 A 9.688 9.688 0 0 1 51.012 7.452 A 9.194 9.194 0 0 1 53.314 7.73 A 7.579 7.579 0 0 1 55.206 8.496 Q 57.024 9.54 58.086 11.322 A 7.325 7.325 0 0 1 59.083 14.512 Q 59.113 14.877 59.113 15.257 A 9.634 9.634 0 0 1 59.112 15.408 A 11.661 11.661 0 0 0 59.115 15.642 Q 59.119 15.851 59.13 16.11 Q 59.148 16.524 59.112 16.956 Z M 100.908 7.704 L 103.788 7.704 L 103.788 2.664 L 105.12 2.664 L 105.12 7.704 L 110.484 7.704 L 110.484 8.928 L 105.12 8.928 L 105.12 20.592 Q 105.12 22.003 105.763 22.921 A 3.093 3.093 0 0 0 105.894 23.094 Q 106.668 24.048 107.892 24.408 Q 109.116 24.768 110.484 24.48 L 110.484 25.596 A 6.1 6.1 0 0 1 108.918 25.804 A 5.843 5.843 0 0 1 108.054 25.74 A 5.2 5.2 0 0 1 106.198 25.103 A 4.987 4.987 0 0 1 105.894 24.912 A 4.722 4.722 0 0 1 104.419 23.284 A 5.517 5.517 0 0 1 104.364 23.184 Q 103.79 22.108 103.788 20.602 A 7.844 7.844 0 0 1 103.788 20.592 L 103.788 8.928 L 100.908 8.928 L 100.908 7.704 Z M 8.712 25.956 Q 6.192 25.956 4.23 24.84 Q 2.268 23.724 1.134 21.654 A 8.977 8.977 0 0 1 0.195 18.95 A 12.373 12.373 0 0 1 0 16.704 A 12.026 12.026 0 0 1 0.233 14.282 A 9.035 9.035 0 0 1 1.134 11.772 Q 2.268 9.684 4.248 8.568 A 8.72 8.72 0 0 1 7.948 7.479 A 10.563 10.563 0 0 1 8.712 7.452 A 9.69 9.69 0 0 1 11.227 7.767 A 8.11 8.11 0 0 1 13.176 8.568 A 7.971 7.971 0 0 1 16.178 11.634 A 9.512 9.512 0 0 1 16.254 11.772 A 9.18 9.18 0 0 1 17.222 14.637 A 12.33 12.33 0 0 1 17.388 16.704 A 12.263 12.263 0 0 1 17.171 19.069 A 8.924 8.924 0 0 1 16.254 21.654 Q 15.12 23.724 13.158 24.84 Q 11.196 25.956 8.712 25.956 Z M 114.804 25.704 L 114.804 0 L 116.136 0 L 116.136 25.704 L 114.804 25.704 Z M 8.676 24.732 Q 10.584 24.732 12.258 23.868 A 6.522 6.522 0 0 0 14.635 21.756 A 8.04 8.04 0 0 0 14.976 21.222 Q 16.02 19.44 16.02 16.704 Q 16.02 13.932 14.976 12.168 Q 13.932 10.404 12.258 9.54 Q 10.584 8.676 8.712 8.676 Q 6.804 8.676 5.148 9.54 A 6.509 6.509 0 0 0 2.861 11.55 A 8.075 8.075 0 0 0 2.448 12.186 Q 1.404 13.968 1.404 16.704 A 12.328 12.328 0 0 0 1.537 18.566 Q 1.692 19.579 2.028 20.413 A 6.386 6.386 0 0 0 2.43 21.24 A 7.002 7.002 0 0 0 3.877 23.017 A 6.292 6.292 0 0 0 5.13 23.868 Q 6.804 24.732 8.676 24.732 Z M 37.764 16.704 Q 37.764 12.996 35.82 10.836 A 6.422 6.422 0 0 0 31.522 8.719 A 8.958 8.958 0 0 0 30.636 8.676 A 7.779 7.779 0 0 0 28.694 8.909 A 6.214 6.214 0 0 0 26.892 9.684 A 6.723 6.723 0 0 0 24.539 12.27 A 8.059 8.059 0 0 0 24.426 12.492 A 8.458 8.458 0 0 0 23.69 14.845 A 11.372 11.372 0 0 0 23.544 16.704 A 10.914 10.914 0 0 0 23.742 18.831 A 8.216 8.216 0 0 0 24.444 20.916 A 7.19 7.19 0 0 0 25.909 22.927 A 6.635 6.635 0 0 0 26.928 23.724 Q 28.512 24.732 30.636 24.732 A 8.02 8.02 0 0 0 32.947 24.415 A 6.182 6.182 0 0 0 35.838 22.572 A 7.268 7.268 0 0 0 37.434 19.509 Q 37.723 18.398 37.759 17.084 A 13.824 13.824 0 0 0 37.764 16.704 Z M 44.1 15.804 L 57.744 15.804 Q 57.763 14.685 57.535 13.706 A 6.841 6.841 0 0 0 56.952 12.114 Q 56.124 10.512 54.594 9.594 A 6.413 6.413 0 0 0 52.14 8.751 A 8.273 8.273 0 0 0 51.012 8.676 A 6.803 6.803 0 0 0 48.645 9.081 A 6.315 6.315 0 0 0 47.574 9.594 Q 46.044 10.512 45.108 12.132 A 7.559 7.559 0 0 0 44.15 15.111 A 9.143 9.143 0 0 0 44.1 15.804 Z M 83.664 16.236 L 83.664 15.048 L 97.092 15.048 L 97.092 16.236 L 83.664 16.236 Z" vector-effect="non-scaling-stroke"/></g></svg>